<?xml version="1.0" encoding="iso-8859-1"?>
<!-- Generator: Adobe Illustrator 18.1.1, SVG Export Plug-In . SVG Version: 6.00 Build 0)  -->
<svg version="1.1" id="Capa_1" xmlns="http://www.w3.org/2000/svg" xmlns:xlink="http://www.w3.org/1999/xlink" x="0px" y="0px"
	 viewBox="0 0 35.722 35.722" style="enable-background:new 0 0 35.722 35.722;" xml:space="preserve" fill="#b2097" >
<g>
	<g>
		<path d="M29.327,25.217c0.958-1.311,1.53-2.919,1.53-4.663c-0.001-2.771-1.432-5.21-3.588-6.633V5.009
			c0.001-1.077-0.874-1.948-1.949-1.948H1.949C0.871,3.061,0,3.932,0,5.009v19.483c0,1.07,0.871,1.945,1.949,1.945H17.61
			c1.408,1.271,3.267,2.051,5.31,2.051c1.958,0,3.751-0.717,5.138-1.898l5.728,6.071l1.936-1.788L29.327,25.217z M9.314,4.524
			c0.533,0,0.97,0.434,0.97,0.975c0,0.539-0.437,0.974-0.97,0.974c-0.541,0-0.975-0.435-0.975-0.974
			C8.34,4.957,8.773,4.524,9.314,4.524z M6.33,4.524c0.537,0,0.977,0.434,0.977,0.975c0,0.539-0.438,0.974-0.977,0.974
			c-0.541,0-0.978-0.435-0.978-0.974C5.354,4.957,5.789,4.524,6.33,4.524z M3.408,4.524c0.534,0,0.975,0.434,0.975,0.975
			c0,0.539-0.439,0.974-0.975,0.974c-0.537,0-0.976-0.435-0.976-0.974C2.434,4.957,2.871,4.524,3.408,4.524z M1.949,24.494
			L1.949,24.494V7.954h23.37v5.039c-0.758-0.244-1.563-0.373-2.399-0.373c-4.375,0-7.938,3.558-7.938,7.937
			c0,1.43,0.388,2.772,1.056,3.938L1.949,24.494L1.949,24.494z M26.951,25.547c-0.431,0.351-0.906,0.642-1.414,0.865
			c-0.8,0.361-1.687,0.568-2.617,0.568c-0.918,0-1.785-0.197-2.572-0.543c-0.988-0.435-1.842-1.109-2.496-1.945
			c-0.848-1.092-1.356-2.455-1.356-3.938c0-3.543,2.885-6.427,6.426-6.427c0.85,0,1.658,0.17,2.399,0.474
			c0.726,0.293,1.384,0.715,1.949,1.237c1.271,1.173,2.074,2.851,2.074,4.716C29.344,22.571,28.408,24.37,26.951,25.547z"/>
		<path d="M20.252,16.747c5.176-0.936,6.735,3.146,6.735,3.146l0.382-1.133C24.387,13.961,20.252,16.747,20.252,16.747z"/>
	</g>
</g>
<g>
</g>
<g>
</g>
<g>
</g>
<g>
</g>
<g>
</g>
<g>
</g>
<g>
</g>
<g>
</g>
<g>
</g>
<g>
</g>
<g>
</g>
<g>
</g>
<g>
</g>
<g>
</g>
<g>
</g>
</svg>
