<svg width="66" height="27" viewBox="0 0 66 27" fill="none" xmlns="http://www.w3.org/2000/svg">
<path d="M20.3049 24.272C19.8489 24.536 19.3089 24.8 18.6849 25.064C18.0849 25.304 17.4369 25.532 16.7409 25.748C16.0689 25.94 15.3849 26.096 14.6889 26.216C14.0169 26.36 13.3809 26.432 12.7809 26.432C10.8609 26.432 9.13286 26.18 7.59686 25.676C6.06086 25.148 4.75286 24.356 3.67286 23.3C2.59286 22.22 1.75286 20.864 1.15286 19.232C0.57686 17.6 0.288859 15.656 0.288859 13.4C0.288859 11.048 0.624859 9.044 1.29686 7.388C1.99286 5.732 2.90486 4.388 4.03286 3.356C5.18486 2.3 6.48086 1.544 7.92086 1.088C9.38486 0.607999 10.8729 0.368 12.3849 0.368C13.9689 0.368 15.3009 0.476 16.3809 0.692C17.4849 0.883999 18.4449 1.184 19.2609 1.592C19.2609 1.952 19.2489 2.396 19.2249 2.924C19.2009 3.452 19.1649 4.004 19.1169 4.58C19.0689 5.156 19.0089 5.732 18.9369 6.308C18.8649 6.86 18.7929 7.352 18.7209 7.784H17.7849L15.9129 2.6C15.6489 2.456 15.2049 2.36 14.5809 2.312C13.9569 2.264 13.3449 2.24 12.7449 2.24C11.5449 2.24 10.4049 2.468 9.32486 2.924C8.24486 3.356 7.29686 4.04 6.48086 4.976C5.68886 5.888 5.05286 7.052 4.57286 8.468C4.09286 9.86 3.85286 11.504 3.85286 13.4C3.85286 15.104 4.08086 16.64 4.53686 18.008C5.01686 19.376 5.66486 20.552 6.48086 21.536C7.32086 22.496 8.29286 23.24 9.39686 23.768C10.5249 24.296 11.7369 24.56 13.0329 24.56C13.5129 24.56 13.9809 24.512 14.4369 24.416C14.8929 24.32 15.3129 24.212 15.6969 24.092C16.0809 23.948 16.3929 23.804 16.6329 23.66C16.8969 23.516 17.0769 23.396 17.1729 23.3V16.028C16.5489 15.98 15.9489 15.872 15.3729 15.704C14.8209 15.536 14.2689 15.356 13.7169 15.164V14.12H22.5369V15.164C22.2969 15.332 22.0089 15.488 21.6729 15.632C21.3369 15.776 20.8809 15.908 20.3049 16.028V24.272ZM30.618 24.092C31.17 24.212 31.698 24.344 32.202 24.488C32.706 24.608 33.198 24.764 33.678 24.956V26H24.21V24.956C24.738 24.716 25.242 24.536 25.722 24.416C26.202 24.296 26.682 24.188 27.162 24.092V2.744C26.538 2.624 25.986 2.492 25.506 2.348C25.026 2.18 24.594 2.012 24.21 1.844V0.799998H27.378C28.338 0.799998 29.382 0.751998 30.51 0.655998C31.662 0.559999 32.778 0.512 33.858 0.512C35.034 0.512 36.126 0.644 37.134 0.907999C38.166 1.172 39.054 1.592 39.798 2.168C40.542 2.744 41.118 3.476 41.526 4.364C41.958 5.252 42.174 6.32 42.174 7.568C42.174 9.32 41.706 10.772 40.77 11.924C39.858 13.076 38.61 13.904 37.026 14.408C38.058 16.04 39.138 17.66 40.266 19.268C41.394 20.876 42.57 22.472 43.794 24.056L45.738 25.1V26H41.382L40.014 24.992C39.342 24.152 38.73 23.336 38.178 22.544C37.626 21.728 37.11 20.912 36.63 20.096C36.15 19.256 35.694 18.416 35.262 17.576C34.854 16.712 34.434 15.8 34.002 14.84H30.618V24.092ZM33.066 2.384C32.49 2.384 32.01 2.396 31.626 2.42C31.266 2.444 30.93 2.492 30.618 2.564V13.328H33.21C34.866 13.328 36.174 12.8 37.134 11.744C38.118 10.688 38.61 9.296 38.61 7.568C38.61 5.792 38.094 4.484 37.062 3.644C36.03 2.804 34.698 2.384 33.066 2.384ZM60.5301 26H50.4141V24.956C50.9421 24.764 51.4701 24.596 51.9981 24.452C52.5501 24.308 53.1381 24.188 53.7621 24.092V2.672H48.2541L46.3461 7.82H45.4461C45.3741 7.34 45.3141 6.8 45.2661 6.2C45.2181 5.576 45.1701 4.952 45.1221 4.328C45.0981 3.68 45.0741 3.056 45.0501 2.456C45.0261 1.832 45.0141 1.28 45.0141 0.799998H65.9301C65.9301 1.28 65.9181 1.82 65.8941 2.42C65.8701 3.02 65.8341 3.644 65.7861 4.292C65.7621 4.916 65.7261 5.54 65.6781 6.164C65.6541 6.764 65.6061 7.316 65.5341 7.82H64.5981L62.7261 2.672H57.2181V24.092C57.8421 24.212 58.4181 24.332 58.9461 24.452C59.4981 24.572 60.0261 24.74 60.5301 24.956V26Z" fill="white"/>
</svg>
