<svg id="Capa_1" enable-background="new 0 0 512 512" height="512" viewBox="0 0 512 512" width="512" xmlns="http://www.w3.org/2000/svg" xmlns:xlink="http://www.w3.org/1999/xlink"><linearGradient id="SVGID_1_" gradientUnits="userSpaceOnUse" x1="409.64" x2="409.64" y1="512" y2="307.28"><stop offset="0" stop-color="#fd5900"/><stop offset="1" stop-color="#ffde00"/></linearGradient><linearGradient id="SVGID_2_" gradientUnits="userSpaceOnUse" x1="195" x2="195" y1="390" y2="0"><stop offset="0" stop-color="#ffedad"/><stop offset="1" stop-color="#ffffe5"/></linearGradient><g><g><g><path d="m507.605 443.973-104.861-104.862c-5.859-5.859-15.352-5.859-21.211 0l-10.605 10.605-38.042-38.042c-5.859-5.859-15.352-5.859-21.211 0s-5.859 15.352 0 21.211l38.042 38.042-10.605 10.605c-5.859 5.859-5.859 15.352 0 21.211l104.861 104.861c2.93 2.93 6.768 4.395 10.605 4.395s7.676-1.465 10.605-4.395l42.422-42.422c5.86-5.858 5.86-15.35 0-21.209z" fill="url(#SVGID_1_)"/></g></g><g><g><path d="m195 390c-107.52 0-195-87.48-195-195s87.48-195 195-195 195 87.48 195 195-87.48 195-195 195z" fill="url(#SVGID_2_)"/></g></g></g></svg>