<svg width="100" height="100" viewBox="0 0 100 100" fill="none" xmlns="http://www.w3.org/2000/svg">
<circle cx="50" cy="50" r="50" fill="white"/>
<path d="M37.3049 61.272C36.8489 61.536 36.3089 61.8 35.6849 62.064C35.0849 62.304 34.4369 62.532 33.7409 62.748C33.0689 62.94 32.3849 63.096 31.6889 63.216C31.0169 63.36 30.3809 63.432 29.7809 63.432C27.8609 63.432 26.1329 63.18 24.5969 62.676C23.0609 62.148 21.7529 61.356 20.6729 60.3C19.5929 59.22 18.7529 57.864 18.1529 56.232C17.5769 54.6 17.2889 52.656 17.2889 50.4C17.2889 48.048 17.6249 46.044 18.2969 44.388C18.9929 42.732 19.9049 41.388 21.0329 40.356C22.1849 39.3 23.4809 38.544 24.9209 38.088C26.3849 37.608 27.8729 37.368 29.3849 37.368C30.9689 37.368 32.3009 37.476 33.3809 37.692C34.4849 37.884 35.4449 38.184 36.2609 38.592C36.2609 38.952 36.2489 39.396 36.2249 39.924C36.2009 40.452 36.1649 41.004 36.1169 41.58C36.0689 42.156 36.0089 42.732 35.9369 43.308C35.8649 43.86 35.7929 44.352 35.7209 44.784H34.7849L32.9129 39.6C32.6489 39.456 32.2049 39.36 31.5809 39.312C30.9569 39.264 30.3449 39.24 29.7449 39.24C28.5449 39.24 27.4049 39.468 26.3249 39.924C25.2449 40.356 24.2969 41.04 23.4809 41.976C22.6889 42.888 22.0529 44.052 21.5729 45.468C21.0929 46.86 20.8529 48.504 20.8529 50.4C20.8529 52.104 21.0809 53.64 21.5369 55.008C22.0169 56.376 22.6649 57.552 23.4809 58.536C24.3209 59.496 25.2929 60.24 26.3969 60.768C27.5249 61.296 28.7369 61.56 30.0329 61.56C30.5129 61.56 30.9809 61.512 31.4369 61.416C31.8929 61.32 32.3129 61.212 32.6969 61.092C33.0809 60.948 33.3929 60.804 33.6329 60.66C33.8969 60.516 34.0769 60.396 34.1729 60.3V53.028C33.5489 52.98 32.9489 52.872 32.3729 52.704C31.8209 52.536 31.2689 52.356 30.7169 52.164V51.12H39.5369V52.164C39.2969 52.332 39.0089 52.488 38.6729 52.632C38.3369 52.776 37.8809 52.908 37.3049 53.028V61.272ZM47.618 61.092C48.17 61.212 48.698 61.344 49.202 61.488C49.706 61.608 50.198 61.764 50.678 61.956V63H41.21V61.956C41.738 61.716 42.242 61.536 42.722 61.416C43.202 61.296 43.682 61.188 44.162 61.092V39.744C43.538 39.624 42.986 39.492 42.506 39.348C42.026 39.18 41.594 39.012 41.21 38.844V37.8H44.378C45.338 37.8 46.382 37.752 47.51 37.656C48.662 37.56 49.778 37.512 50.858 37.512C52.034 37.512 53.126 37.644 54.134 37.908C55.166 38.172 56.054 38.592 56.798 39.168C57.542 39.744 58.118 40.476 58.526 41.364C58.958 42.252 59.174 43.32 59.174 44.568C59.174 46.32 58.706 47.772 57.77 48.924C56.858 50.076 55.61 50.904 54.026 51.408C55.058 53.04 56.138 54.66 57.266 56.268C58.394 57.876 59.57 59.472 60.794 61.056L62.738 62.1V63H58.382L57.014 61.992C56.342 61.152 55.73 60.336 55.178 59.544C54.626 58.728 54.11 57.912 53.63 57.096C53.15 56.256 52.694 55.416 52.262 54.576C51.854 53.712 51.434 52.8 51.002 51.84H47.618V61.092ZM50.066 39.384C49.49 39.384 49.01 39.396 48.626 39.42C48.266 39.444 47.93 39.492 47.618 39.564V50.328H50.21C51.866 50.328 53.174 49.8 54.134 48.744C55.118 47.688 55.61 46.296 55.61 44.568C55.61 42.792 55.094 41.484 54.062 40.644C53.03 39.804 51.698 39.384 50.066 39.384ZM77.5301 63H67.4141V61.956C67.9421 61.764 68.4701 61.596 68.9981 61.452C69.5501 61.308 70.1381 61.188 70.7621 61.092V39.672H65.2541L63.3461 44.82H62.4461C62.3741 44.34 62.3141 43.8 62.2661 43.2C62.2181 42.576 62.1701 41.952 62.1221 41.328C62.0981 40.68 62.0741 40.056 62.0501 39.456C62.0261 38.832 62.0141 38.28 62.0141 37.8H82.9301C82.9301 38.28 82.9181 38.82 82.8941 39.42C82.8701 40.02 82.8341 40.644 82.7861 41.292C82.7621 41.916 82.7261 42.54 82.6781 43.164C82.6541 43.764 82.6061 44.316 82.5341 44.82H81.5981L79.7261 39.672H74.2181V61.092C74.8421 61.212 75.4181 61.332 75.9461 61.452C76.4981 61.572 77.0261 61.74 77.5301 61.956V63Z" fill="#350048"/>
</svg>
